<svg width="34" height="12" viewBox="0 0 34 12" fill="none" xmlns="http://www.w3.org/2000/svg">
<path d="M9.5 11.5H8.044L2.188 2.62V11.5H0.732V0.332H2.188L8.044 9.196V0.332H9.5V11.5ZM19.982 6.78C19.982 7.05733 19.966 7.35067 19.934 7.66H12.926C12.9793 8.524 13.2727 9.20133 13.806 9.692C14.35 10.172 15.006 10.412 15.774 10.412C16.4033 10.412 16.926 10.268 17.342 9.98C17.7687 9.68133 18.0673 9.28667 18.238 8.796H19.806C19.5713 9.63867 19.102 10.3267 18.398 10.86C17.694 11.3827 16.8193 11.644 15.774 11.644C14.942 11.644 14.1953 11.4573 13.534 11.084C12.8833 10.7107 12.3713 10.1827 11.998 9.5C11.6247 8.80667 11.438 8.00667 11.438 7.1C11.438 6.19333 11.6193 5.39867 11.982 4.716C12.3447 4.03333 12.8513 3.51067 13.502 3.148C14.1633 2.77467 14.9207 2.588 15.774 2.588C16.606 2.588 17.342 2.76933 17.982 3.132C18.622 3.49467 19.1127 3.996 19.454 4.636C19.806 5.26533 19.982 5.98 19.982 6.78ZM18.478 6.476C18.478 5.92133 18.3553 5.44667 18.11 5.052C17.8647 4.64667 17.5287 4.34267 17.102 4.14C16.686 3.92667 16.222 3.82 15.71 3.82C14.974 3.82 14.3447 4.05467 13.822 4.524C13.31 4.99333 13.0167 5.644 12.942 6.476H18.478ZM26.4799 11.5L24.3999 8.236L22.3999 11.5H20.8799L23.7119 7.148L20.8799 2.732H22.5279L24.6079 5.98L26.5919 2.732H28.1119L25.2959 7.068L28.1279 11.5H26.4799ZM31.3361 3.932V9.1C31.3361 9.52667 31.4268 9.83067 31.6081 10.012C31.7895 10.1827 32.1041 10.268 32.5521 10.268H33.6241V11.5H32.3121C31.5015 11.5 30.8935 11.3133 30.4881 10.94C30.0828 10.5667 29.8801 9.95333 29.8801 9.1V3.932H28.7441V2.732H29.8801V0.523999H31.3361V2.732H33.6241V3.932H31.3361Z" fill="url(#paint0_linear_1928_560)"/>
<defs>
<linearGradient id="paint0_linear_1928_560" x1="-7.56731" y1="6.02311" x2="58.4615" y2="6.02312" gradientUnits="userSpaceOnUse">
<stop stop-color="#523FD7"/>
<stop offset="1" stop-color="#FF7DFF"/>
</linearGradient>
</defs>
</svg>
